<?xml version="1.0" encoding="utf-8"?>
<!-- Generator: Adobe Illustrator 16.0.0, SVG Export Plug-In . SVG Version: 6.00 Build 0)  -->
<!DOCTYPE svg PUBLIC "-//W3C//DTD SVG 1.1//EN" "http://www.w3.org/Graphics/SVG/1.1/DTD/svg11.dtd">
<svg version="1.1" id="Layer_1" xmlns="http://www.w3.org/2000/svg" xmlns:xlink="http://www.w3.org/1999/xlink" x="0px" y="0px"
	 width="20px" height="10.185px" viewBox="0 0 20 10.185" enable-background="new 0 0 20 10.185" xml:space="preserve">
<g>
	<path fill="#FFFFFF" d="M9.712,10.205c0.122-0.099,0.149-0.119,0.174-0.144c3.276-3.05,6.551-6.1,9.827-9.149
		c0.043-0.042,0.087-0.085,0.122-0.133c0.141-0.188,0.148-0.383,0.015-0.577c-0.139-0.199-0.341-0.239-0.553-0.171
		c-0.107,0.035-0.203,0.127-0.293,0.208c-3.016,2.806-6.031,5.616-9.046,8.423c-0.049,0.045-0.102,0.087-0.16,0.138
		C9.716,8.723,9.646,8.66,9.579,8.595C6.706,5.812,3.833,3.03,0.96,0.247c-0.062-0.06-0.124-0.122-0.195-0.169
		c-0.184-0.12-0.448-0.092-0.6,0.057c-0.17,0.166-0.2,0.415-0.062,0.615C0.157,0.827,0.226,0.895,0.294,0.96
		c2.848,2.758,5.698,5.515,8.541,8.277C9.146,9.539,9.418,9.878,9.712,10.205z"/>
	<path fill-rule="evenodd" clip-rule="evenodd" d="M9.712,10.205C9.418,9.878,9.146,9.539,8.835,9.238
		C5.992,6.475,3.142,3.718,0.294,0.96C0.226,0.895,0.157,0.827,0.104,0.749c-0.138-0.2-0.108-0.449,0.062-0.615
		c0.151-0.148,0.416-0.177,0.6-0.057C0.836,0.125,0.898,0.187,0.96,0.247C3.833,3.03,6.706,5.812,9.579,8.595
		C9.646,8.66,9.716,8.723,9.797,8.799c0.059-0.051,0.111-0.093,0.16-0.138c3.015-2.807,6.031-5.617,9.046-8.423
		c0.09-0.081,0.186-0.173,0.293-0.208c0.212-0.068,0.414-0.028,0.553,0.171c0.134,0.193,0.126,0.389-0.015,0.577
		C19.8,0.827,19.756,0.87,19.713,0.912c-3.276,3.05-6.551,6.1-9.827,9.149C9.861,10.085,9.833,10.106,9.712,10.205z"/>
</g>
</svg>
