<?xml version="1.0" encoding="utf-8"?>
<!-- Generator: Adobe Illustrator 16.0.0, SVG Export Plug-In . SVG Version: 6.00 Build 0)  -->
<!DOCTYPE svg PUBLIC "-//W3C//DTD SVG 1.1//EN" "http://www.w3.org/Graphics/SVG/1.1/DTD/svg11.dtd">
<svg version="1.1" id="Layer_1" xmlns="http://www.w3.org/2000/svg" xmlns:xlink="http://www.w3.org/1999/xlink" x="0px" y="0px"
	 width="163.817px" height="128.205px" viewBox="0 0 163.817 128.205" enable-background="new 0 0 163.817 128.205"
	 xml:space="preserve">
<g>
	<path fill="#FFFFFF" d="M-5.269-5.022c58.169,0,116.339,0,174.509,0c0,46.669,0,93.338,0,140.007c-58.17,0-116.339,0-174.508,0
		C-5.268,88.315-5.268,41.646-5.269-5.022z M81.926,12.508c24.577,0,49.154,0,73.731-0.002c0.916,0,1.84,0.043,2.746-0.058
		c3.098-0.345,5.304-2.772,5.412-5.882c0.143-4.09-2.709-6.559-7.615-6.559c-49.488-0.003-98.976-0.002-148.464,0
		c-0.666,0-1.339-0.034-1.998,0.043C3.141,0.353,0.887,2.186,0.286,4.545c-0.654,2.565-0.163,5.019,2.046,6.473
		c1.417,0.933,3.388,1.423,5.112,1.429C32.271,12.536,57.098,12.508,81.926,12.508z M81.798,128.205
		c24.497,0,48.994,0.001,73.492-0.004c1.081-0.001,2.176,0.029,3.242-0.115c3.086-0.419,5.228-2.896,5.286-6.003
		c0.077-4.049-2.803-6.473-7.73-6.474c-49.245-0.003-98.49-0.002-147.735-0.001c-5.357,0-8.367,2.332-8.308,6.427
		c0.058,3.998,2.957,6.168,8.26,6.169C32.803,128.206,57.3,128.205,81.798,128.205z M81.977,77.896
		c-24.578,0-49.156-0.001-73.735,0.002c-0.916,0-1.837-0.026-2.747,0.062c-2.381,0.23-4.052,1.567-4.948,3.697
		C-0.386,83.875-0.146,86.069,1.425,88c1.689,2.076,3.977,2.455,6.505,2.454c49.324-0.026,98.647-0.02,147.971-0.021
		c0.666,0,1.337,0.034,1.998-0.028c3.546-0.334,6.012-3.062,5.918-6.512c-0.103-3.723-2.753-5.989-7.105-5.991
		C131.8,77.892,106.889,77.897,81.977,77.896z M81.63,52.485c24.66,0,49.319,0,73.979-0.001c0.833,0,1.67,0.039,2.498-0.03
		c3.444-0.287,5.792-2.925,5.708-6.37c-0.089-3.641-2.744-6.066-6.823-6.067C106.923,40.003,56.854,40.008,6.785,40.01
		c-0.416,0-0.84-0.014-1.247,0.057c-2.596,0.452-4.441,1.856-5.238,4.409c-0.767,2.458,0.001,5.403,2.179,6.651
		c1.493,0.855,3.431,1.297,5.172,1.303C32.311,52.511,56.971,52.485,81.63,52.485z"/>
	<path fill-rule="evenodd" clip-rule="evenodd" d="M81.926,12.508c-24.828,0-49.655,0.028-74.482-0.061
		c-1.725-0.006-3.695-0.496-5.112-1.429c-2.208-1.454-2.7-3.908-2.046-6.473C0.887,2.186,3.141,0.353,5.739,0.05
		C6.397-0.026,7.07,0.007,7.736,0.007c49.488-0.001,98.976-0.002,148.464,0c4.906,0,7.758,2.468,7.615,6.559
		c-0.108,3.109-2.314,5.537-5.412,5.882c-0.906,0.101-1.83,0.058-2.746,0.058C131.08,12.508,106.503,12.508,81.926,12.508z"/>
	<path fill-rule="evenodd" clip-rule="evenodd" d="M81.798,128.205c-24.498,0-48.995,0.001-73.492-0.001
		c-5.303-0.001-8.203-2.171-8.26-6.169c-0.059-4.095,2.95-6.427,8.308-6.427c49.245-0.001,98.49-0.002,147.735,0.001
		c4.928,0.001,7.808,2.425,7.73,6.474c-0.059,3.107-2.2,5.584-5.286,6.003c-1.066,0.145-2.161,0.114-3.242,0.115
		C130.792,128.206,106.295,128.205,81.798,128.205z"/>
	<path fill-rule="evenodd" clip-rule="evenodd" d="M81.977,77.896c24.912,0.001,49.823-0.005,74.735,0.006
		c4.353,0.002,7.003,2.269,7.105,5.991c0.094,3.45-2.372,6.178-5.918,6.512c-0.661,0.062-1.332,0.028-1.998,0.028
		c-49.324,0.001-98.647-0.006-147.971,0.021C5.402,90.455,3.115,90.076,1.425,88c-1.571-1.931-1.811-4.125-0.878-6.343
		c0.896-2.13,2.567-3.467,4.948-3.697c0.909-0.088,1.831-0.062,2.747-0.062C32.82,77.896,57.398,77.896,81.977,77.896z"/>
	<path fill-rule="evenodd" clip-rule="evenodd" d="M81.63,52.485c-24.659,0-49.319,0.025-73.979-0.055
		c-1.741-0.006-3.679-0.448-5.172-1.303c-2.178-1.248-2.946-4.192-2.179-6.651c0.796-2.553,2.642-3.957,5.238-4.409
		c0.407-0.071,0.831-0.057,1.247-0.057c50.069-0.002,100.138-0.007,150.208,0.006c4.079,0.001,6.734,2.427,6.823,6.067
		c0.084,3.445-2.264,6.083-5.708,6.37c-0.828,0.069-1.665,0.03-2.498,0.03C130.949,52.485,106.29,52.485,81.63,52.485z"/>
</g>
</svg>
