<?xml version="1.0" encoding="utf-8"?>
<!-- Generator: Adobe Illustrator 16.0.0, SVG Export Plug-In . SVG Version: 6.00 Build 0)  -->
<!DOCTYPE svg PUBLIC "-//W3C//DTD SVG 1.1//EN" "http://www.w3.org/Graphics/SVG/1.1/DTD/svg11.dtd">
<svg version="1.1" id="Layer_1" xmlns="http://www.w3.org/2000/svg" xmlns:xlink="http://www.w3.org/1999/xlink" x="0px" y="0px"
	 width="10.205px" height="19.929px" viewBox="0 0 10.205 19.929" enable-background="new 0 0 10.205 19.929" xml:space="preserve">
<g>
	<path fill="#FFFFFF" d="M0.001,9.696C0.1,9.818,0.121,9.845,0.145,9.87c3.05,3.276,6.1,6.551,9.149,9.827
		c0.042,0.043,0.085,0.087,0.134,0.122c0.188,0.141,0.383,0.148,0.576,0.015c0.199-0.139,0.239-0.341,0.171-0.553
		c-0.034-0.107-0.127-0.203-0.208-0.293c-2.806-3.016-5.616-6.031-8.423-9.046C1.5,9.892,1.458,9.84,1.407,9.782
		c0.076-0.081,0.14-0.151,0.204-0.219c2.783-2.874,5.565-5.747,8.349-8.62c0.061-0.062,0.122-0.124,0.169-0.194
		c0.12-0.185,0.092-0.448-0.057-0.6c-0.166-0.17-0.415-0.2-0.614-0.062C9.379,0.141,9.312,0.209,9.246,0.278
		C6.488,3.126,3.731,5.976,0.968,8.82C0.667,9.13,0.328,9.402,0.001,9.696z"/>
	<path fill-rule="evenodd" clip-rule="evenodd" d="M0.001,9.696C0.328,9.402,0.667,9.13,0.968,8.82
		c2.763-2.844,5.52-5.694,8.277-8.542c0.066-0.069,0.134-0.138,0.212-0.191c0.199-0.138,0.448-0.107,0.614,0.062
		c0.148,0.151,0.177,0.415,0.057,0.6c-0.047,0.07-0.108,0.133-0.169,0.194c-2.783,2.873-5.565,5.746-8.349,8.62
		C1.546,9.63,1.483,9.701,1.407,9.782C1.458,9.84,1.5,9.892,1.544,9.942c2.807,3.015,5.617,6.03,8.423,9.046
		c0.081,0.09,0.174,0.186,0.208,0.293c0.068,0.212,0.028,0.414-0.171,0.553c-0.193,0.134-0.389,0.126-0.576-0.015
		c-0.049-0.035-0.092-0.079-0.134-0.122c-3.05-3.276-6.1-6.551-9.149-9.827C0.121,9.845,0.1,9.818,0.001,9.696z"/>
</g>
</svg>
