<?xml version="1.0" encoding="utf-8"?>
<!-- Generator: Adobe Illustrator 16.0.0, SVG Export Plug-In . SVG Version: 6.00 Build 0)  -->
<!DOCTYPE svg PUBLIC "-//W3C//DTD SVG 1.1//EN" "http://www.w3.org/Graphics/SVG/1.1/DTD/svg11.dtd">
<svg version="1.1" id="Layer_1" xmlns="http://www.w3.org/2000/svg" xmlns:xlink="http://www.w3.org/1999/xlink" x="0px" y="0px"
	 width="10.205px" height="19.929px" viewBox="0 0 10.205 19.929" enable-background="new 0 0 10.205 19.929" xml:space="preserve">
<g>
	<path fill="#FFFFFF" d="M10.205,10.234c-0.099-0.122-0.119-0.149-0.144-0.174c-3.05-3.277-6.1-6.551-9.149-9.828
		C0.87,0.189,0.827,0.146,0.778,0.11C0.591-0.03,0.395-0.038,0.202,0.096C0.003,0.234-0.038,0.437,0.031,0.648
		c0.035,0.107,0.127,0.203,0.208,0.293c2.806,3.016,5.616,6.031,8.423,9.046c0.045,0.05,0.087,0.102,0.138,0.16
		c-0.076,0.081-0.14,0.151-0.204,0.219c-2.783,2.873-5.565,5.746-8.349,8.619c-0.06,0.062-0.122,0.124-0.169,0.194
		c-0.12,0.185-0.092,0.448,0.057,0.6c0.166,0.17,0.415,0.2,0.615,0.062c0.078-0.054,0.146-0.122,0.211-0.191
		c2.758-2.848,5.515-5.697,8.277-8.541C9.539,10.799,9.878,10.528,10.205,10.234z"/>
	<path fill-rule="evenodd" clip-rule="evenodd" d="M10.205,10.234c-0.326,0.294-0.666,0.565-0.967,0.876
		c-2.763,2.844-5.52,5.693-8.277,8.541c-0.066,0.069-0.134,0.138-0.211,0.191C0.549,19.98,0.3,19.95,0.134,19.78
		c-0.148-0.151-0.177-0.415-0.057-0.6c0.047-0.07,0.109-0.133,0.169-0.194c2.783-2.873,5.565-5.746,8.349-8.619
		c0.064-0.067,0.128-0.138,0.204-0.219c-0.051-0.059-0.093-0.11-0.138-0.16C5.855,6.973,3.044,3.957,0.239,0.941
		c-0.081-0.09-0.173-0.186-0.208-0.293c-0.068-0.212-0.028-0.414,0.171-0.553C0.395-0.038,0.591-0.03,0.778,0.11
		C0.827,0.146,0.87,0.189,0.912,0.232c3.05,3.276,6.1,6.551,9.149,9.828C10.085,10.084,10.106,10.112,10.205,10.234z"/>
</g>
</svg>
