<?xml version="1.0" encoding="utf-8"?>
<!-- Generator: Adobe Illustrator 16.0.0, SVG Export Plug-In . SVG Version: 6.00 Build 0)  -->
<!DOCTYPE svg PUBLIC "-//W3C//DTD SVG 1.1//EN" "http://www.w3.org/Graphics/SVG/1.1/DTD/svg11.dtd">
<svg version="1.1" id="Layer_1" xmlns="http://www.w3.org/2000/svg" xmlns:xlink="http://www.w3.org/1999/xlink" x="0px" y="0px"
	 width="32px" height="32px" viewBox="0 0 32 32" enable-background="new 0 0 32 32" xml:space="preserve">
<path fill="#FFFFFF" d="M25.4,0.1H6.1C2.8,0.1,0,2.8,0,6.2v6.4v12.9c0,3.4,2.7,6.1,6.1,6.1h19.3c3.4,0,6.1-2.7,6.1-6.1V12.6V6.2
	C31.5,2.8,28.8,0.1,25.4,0.1z M27.2,3.7l0.7,0v0.7v4.6l-5.3,0l0-5.3L27.2,3.7z M11.3,12.6c1-1.4,2.6-2.3,4.5-2.3s3.5,0.9,4.5,2.3
	c0.7,0.9,1.1,2,1.1,3.2c0,3.1-2.5,5.5-5.5,5.5s-5.5-2.5-5.5-5.5C10.2,14.6,10.6,13.5,11.3,12.6z M28.5,25.5c0,1.7-1.4,3-3,3H6.1
	c-1.7,0-3-1.4-3-3V12.6h4.7c-0.4,1-0.6,2.1-0.6,3.2c0,4.8,3.9,8.6,8.6,8.6s8.6-3.9,8.6-8.6c0-1.1-0.2-2.2-0.6-3.2h4.7V25.5z"/>
<g>
</g>
<g>
</g>
<g>
</g>
<g>
</g>
<g>
</g>
<g>
</g>
</svg>
