<?xml version="1.0" encoding="utf-8"?>
<!-- Generator: Adobe Illustrator 16.0.0, SVG Export Plug-In . SVG Version: 6.00 Build 0)  -->
<!DOCTYPE svg PUBLIC "-//W3C//DTD SVG 1.1//EN" "http://www.w3.org/Graphics/SVG/1.1/DTD/svg11.dtd">
<svg version="1.1" id="Layer_1" xmlns="http://www.w3.org/2000/svg" xmlns:xlink="http://www.w3.org/1999/xlink" x="0px" y="0px"
	 width="32px" height="32px" viewBox="0 0 32 32" enable-background="new 0 0 32 32" xml:space="preserve">
<path fill="#FFFFFF" d="M7,32H0.8V12.1H7V32z M3.8,9.6L3.8,9.6C1.5,9.6,0,8,0,6.1c0-2,1.5-3.5,3.8-3.5c2.3,0,3.7,1.5,3.8,3.5
	C7.6,8,6.1,9.6,3.8,9.6z M32,32h-7.1V21.7c0-2.7-1.1-4.5-3.5-4.5c-1.9,0-2.9,1.2-3.4,2.4c-0.2,0.4-0.2,1-0.2,1.6V32h-7
	c0,0,0.1-18.3,0-19.9h7v3.1c0.4-1.4,2.6-3.3,6.2-3.3c4.4,0,7.9,2.9,7.9,9V32z"/>
<g>
</g>
<g>
</g>
<g>
</g>
<g>
</g>
<g>
</g>
<g>
</g>
</svg>
