<?xml version="1.0" encoding="utf-8"?>
<!-- Generator: Adobe Illustrator 16.0.0, SVG Export Plug-In . SVG Version: 6.00 Build 0)  -->
<!DOCTYPE svg PUBLIC "-//W3C//DTD SVG 1.1//EN" "http://www.w3.org/Graphics/SVG/1.1/DTD/svg11.dtd">
<svg version="1.1" id="Layer_1" xmlns="http://www.w3.org/2000/svg" xmlns:xlink="http://www.w3.org/1999/xlink" x="0px" y="0px"
	 width="32px" height="32px" viewBox="0 0 32 32" enable-background="new 0 0 32 32" xml:space="preserve">
<path fill="#FFFFFF" d="M31.8,9.2c-1.2,0.5-2.4,0.9-3.8,1c1.3-0.8,2.4-2.1,2.9-3.6c-1.3,0.7-2.7,1.3-4.1,1.6
	c-1.2-1.3-2.9-2.1-4.8-2.1c-3.6,0-6.5,2.9-6.5,6.5c0,0.5,0.1,1,0.2,1.5c-5.4-0.3-10.2-2.9-13.5-6.8c-0.6,1-0.9,2.1-0.9,3.3
	c0,2.3,1.2,4.3,2.9,5.4c-1.1,0-2.1-0.3-3-0.8v0.1c0,3.2,2.2,5.8,5.2,6.4c-0.5,0.2-1.1,0.2-1.7,0.2c-0.4,0-0.8,0-1.2-0.1
	c0.8,2.6,3.2,4.5,6.1,4.5c-2.2,1.8-5.1,2.8-8.1,2.8c-0.5,0-1,0-1.6-0.1C2.9,30.9,6.3,32,10,32c12,0,18.6-9.9,18.6-18.6
	c0-0.3,0-0.6,0-0.8C29.8,11.7,31,10.5,31.8,9.2"/>
<g>
</g>
<g>
</g>
<g>
</g>
<g>
</g>
<g>
</g>
<g>
</g>
</svg>
