<svg xmlns="http://www.w3.org/2000/svg">
  <defs>
    <symbol id="prev" viewBox="0 0 213 132">
      <title>Previous</title>
      <path fill="#414042" stroke="#bf9600" stroke-width="3.5" d="M108.418 66l99 61V5zM4 66l99.293 61V5zM108.418 66l99 61V5z"/>
    </symbol>
    <symbol id="play" viewBox="0 0 105.469 131.621">
      <title>Play</title>
      <path fill="#414042" stroke="#bf9600" stroke-width="2.5" d="M1.25 2.255V129.37l101.858-63.49z"/>
    </symbol>
    <symbol id="pause" viewBox="0 0 105.469 131.621">
      <title>Pause</title>
      <path fill="#414042" stroke="#bf9600" stroke-width="2.5" d="M13.25 1.25h23.652V131.46H13.25zM68.132 1.25h23.652V131.46H68.132z"/>
    </symbol>
    <symbol id="next" viewBox="0 0 213 132">
      <title>Next</title>
      <path fill="#414042" stroke="#bf9600" stroke-width="3.5" d="M4 5v122l99-61zM108.125 5v122l99.292-61zM4 5v122l99-61z"/>
    </symbol>
    <symbol id="facebook" viewBox="0 0 32 32">
      <title>Facebook</title>
      <path d="M8.3 10.6h3.3V7.4c0-1.4 0-3.6 1.1-5C13.7 1 15.2 0 17.8 0c4.2 0 5.9.6 5.9.6l-.8 4.9s-1.4-.4-2.7-.4c-1.3 0-2.4.5-2.4 1.7v3.7h5.3l-.4 4.8h-4.9V32h-6.2V15.4H8.3v-4.8z"/>
    </symbol>
    <symbol id="twitter" viewBox="0 0 32 32">
      <title>Twitter</title>
      <path d="M31.8 9.2c-1.2.5-2.4.9-3.8 1 1.3-.8 2.4-2.1 2.9-3.6-1.3.7-2.7 1.3-4.1 1.6-1.2-1.3-2.9-2.1-4.8-2.1-3.6 0-6.5 2.9-6.5 6.5 0 .5.1 1 .2 1.5-5.4-.3-10.2-2.9-13.5-6.8-.6 1-.9 2.1-.9 3.3 0 2.3 1.2 4.3 2.9 5.4-1.1 0-2.1-.3-3-.8v.1c0 3.2 2.2 5.8 5.2 6.4-.5.2-1.1.2-1.7.2-.4 0-.8 0-1.2-.1.8 2.6 3.2 4.5 6.1 4.5-2.2 1.8-5.1 2.8-8.1 2.8-.5 0-1 0-1.6-.1 3 1.9 6.4 3 10.1 3 12 0 18.6-9.9 18.6-18.6v-.8c1.2-.9 2.4-2.1 3.2-3.4"/>
    </symbol>
    <symbol id="instagram" viewBox="0 0 32 32">
      <title>Instagram</title>
      <path d="M25.4.1H6.1C2.8.1 0 2.8 0 6.2v19.3c0 3.4 2.7 6.1 6.1 6.1h19.3c3.4 0 6.1-2.7 6.1-6.1V6.2c0-3.4-2.7-6.1-6.1-6.1zm1.8 3.6h.7V9h-5.3V3.7h4.6zm-15.9 8.9c1-1.4 2.6-2.3 4.5-2.3s3.5.9 4.5 2.3c.7.9 1.1 2 1.1 3.2 0 3.1-2.5 5.5-5.5 5.5s-5.5-2.5-5.5-5.5c-.2-1.2.2-2.3.9-3.2zm17.2 12.9c0 1.7-1.4 3-3 3H6.1c-1.7 0-3-1.4-3-3V12.6h4.7c-.4 1-.6 2.1-.6 3.2 0 4.8 3.9 8.6 8.6 8.6s8.6-3.9 8.6-8.6c0-1.1-.2-2.2-.6-3.2h4.7v12.9z"/>
    </symbol>
    <symbol id="linkedin" viewBox="0 0 32 32">
      <title>LinkedIn</title>
      <path d="M7 32H.8V12.1H7V32zM3.8 9.6C1.5 9.6 0 8 0 6.1c0-2 1.5-3.5 3.8-3.5s3.7 1.5 3.8 3.5c0 1.9-1.5 3.5-3.8 3.5zM32 32h-7.1V21.7c0-2.7-1.1-4.5-3.5-4.5-1.9 0-2.9 1.2-3.4 2.4-.2.4-.2 1-.2 1.6V32h-7s.1-18.3 0-19.9h7v3.1c.4-1.4 2.6-3.3 6.2-3.3 4.4 0 7.9 2.9 7.9 9V32z"/>
    </symbol>
    <symbol id="soundcloud" viewBox="0 0 20 20">
      <title>Soundcloud</title>
      <path d="M0.672,13.055L1,11.654l-0.328-1.447c-0.009-0.043-0.092-0.076-0.191-0.076c-0.102,0-0.184,0.033-0.191,0.076L0,11.654 l0.289,1.4c0.008,0.045,0.09,0.076,0.191,0.076C0.58,13.131,0.663,13.1,0.672,13.055z M2.723,13.832L3,11.668L2.723,8.32 C2.714,8.236,2.609,8.168,2.484,8.168c-0.127,0-0.233,0.068-0.238,0.152L2,11.668l0.246,2.164c0.006,0.086,0.111,0.152,0.238,0.152 C2.609,13.984,2.714,13.918,2.723,13.832z M4.768,13.797L5,11.67L4.768,7.213C4.762,7.107,4.639,7.025,4.486,7.025 c-0.152,0-0.275,0.082-0.281,0.188L4,11.67l0.205,2.129c0.006,0.103,0.129,0.186,0.281,0.186 C4.639,13.984,4.762,13.902,4.768,13.797z M6.81,13.766L7,11.67L6.81,7.18C6.805,7.057,6.664,6.959,6.49,6.959 c-0.176,0-0.316,0.098-0.321,0.221L6,11.67l0.17,2.096c0.004,0.123,0.145,0.221,0.32,0.221C6.664,13.986,6.805,13.891,6.81,13.766z M8.85,13.738L9,11.672L8.85,6.523C8.846,6.381,8.686,6.268,8.492,6.268c-0.194,0-0.354,0.115-0.357,0.256L8,11.67l0.135,2.068 c0.003,0.141,0.163,0.256,0.357,0.256C8.686,13.994,8.846,13.881,8.85,13.738z M10.277,13.996c0.008,0,7.1,0.004,7.145,0.004 C18.846,14,20,12.883,20,11.506c0-1.377-1.154-2.492-2.578-2.492c-0.353,0-0.689,0.07-0.996,0.193 c-0.205-2.246-2.153-4.008-4.529-4.008c-0.581,0-1.148,0.111-1.648,0.297C10.053,5.57,10.002,5.644,10,5.791v7.91 C10.002,13.854,10.124,13.98,10.277,13.996z"/>
    </symbol>
  </defs>
</svg>
