<?xml version="1.0" encoding="utf-8"?>
<!-- Generator: Adobe Illustrator 16.0.0, SVG Export Plug-In . SVG Version: 6.00 Build 0)  -->
<!DOCTYPE svg PUBLIC "-//W3C//DTD SVG 1.1//EN" "http://www.w3.org/Graphics/SVG/1.1/DTD/svg11.dtd">
<svg version="1.1" id="Layer_1" xmlns="http://www.w3.org/2000/svg" xmlns:xlink="http://www.w3.org/1999/xlink" x="0px" y="0px"
	 width="412.027px" height="84.521px" viewBox="0 0 412.027 84.521" enable-background="new 0 0 412.027 84.521"
	 xml:space="preserve">
<path d="M0,0.89h12.01v51.603h26.246v10.676H0V0.89z"/>
<path d="M59.498,63.168H47.931V0h11.566V63.168z"/>
<path d="M91.239,19.129c13.078,0,22.955,10.053,22.955,22.509c0,12.455-9.876,22.42-22.955,22.42
	c-13.08,0-22.954-9.965-22.954-22.42C68.285,29.182,78.159,19.129,91.239,19.129z M91.239,53.382
	c6.761,0,11.388-5.249,11.388-11.744S98,29.805,91.239,29.805c-6.762,0-11.388,5.338-11.388,11.833S84.477,53.382,91.239,53.382z"/>
<path d="M123.446,84.521l11.921-25.712l-19.306-38.79h12.722l12.635,25.89l11.655-25.89h12.187l-29.716,64.502H123.446z"/>
<path d="M187.84,64.058c-6.407,0-12.456-2.847-16.281-7.295c-3.382-3.915-5.516-9.253-5.516-15.125
	c0-12.723,9.43-22.509,21.173-22.509c9.302,0,12.19,6.138,12.19,6.138V0h11.566v63.168h-11.122v-4.894
	C199.852,58.274,195.978,64.058,187.84,64.058z M199.407,35.143c-2.402-3.202-6.23-5.338-10.677-5.338
	c-6.761,0-11.12,5.605-11.12,11.833c0,6.762,4.892,11.744,11.385,11.744c4.36,0,8.186-2.136,10.411-5.339V35.143z"/>
<path d="M271.648,23.043c0.624,2.136,1.87,7.562,1.87,12.456c0,6.05-1.246,11.565-3.825,15.925l10.23,11.744H265.51l-3.293-3.736
	c-4.537,3.024-10.585,4.626-17.259,4.626c-11.832,0-23.31-7.918-23.31-20.374c0-8.362,5.161-14.234,11.122-18.238
	c-3.026-4.004-4.894-7.74-4.894-11.922c0-7.651,7.03-13.523,14.948-13.523c8.63,0,14.946,6.229,14.946,14.591
	c0,6.14-3.826,10.409-8.186,13.79l11.922,13.701c0.533-1.957,0.891-4.271,0.891-6.672c0-3.826-0.713-7.029-1.514-9.787
	L271.648,23.043z M245.493,53.382c3.467,0,6.762-0.801,9.342-2.402l-14.857-17.171c-3.561,1.957-6.763,4.894-6.763,9.875
	C233.214,48.844,237.84,53.382,245.493,53.382z M242.823,10.677c-1.958,0-3.381,1.779-3.381,3.825c0,2.047,1.422,4.093,3.025,5.872
	c2.134-1.868,3.736-3.736,3.736-5.872C246.204,12.456,244.869,10.677,242.823,10.677z"/>
<path d="M294.602,32.029c0,12.1,9.254,21.353,21.263,21.353c8.099,0,13.97-3.915,17.617-8.63l8.274,7.384
	c-5.516,7.028-14.77,11.922-26.156,11.922c-19.396,0-33.008-14.146-33.008-32.028S296.026,0,315.422,0
	c9.252,0,17.17,3.47,22.776,8.897l-7.741,8.185c-3.736-3.736-8.986-6.405-15.126-6.405C303.5,10.677,294.602,20.196,294.602,32.029z
	"/>
<path d="M369.162,19.129c13.078,0,22.953,10.053,22.953,22.509c0,12.455-9.875,22.42-22.953,22.42
	c-13.079,0-22.955-9.965-22.955-22.42C346.208,29.182,356.083,19.129,369.162,19.129z M369.162,53.382
	c6.762,0,11.387-5.249,11.387-11.744s-4.625-11.833-11.387-11.833s-11.389,5.338-11.389,11.833S362.4,53.382,369.162,53.382z"/>
<path d="M404.197,48.488c4.359,0,7.83,3.47,7.83,7.829s-3.471,7.74-7.83,7.74s-7.74-3.381-7.74-7.74S399.838,48.488,404.197,48.488z
	"/>
</svg>
