<svg xmlns="http://www.w3.org/2000/svg">
  <defs>
    <symbol id="prev" viewBox="0 0 213 132">
      <title>Previous</title>
      <path fill="#414042" stroke="#bf9600" stroke-width="3.5" d="M108.418 66l99 61V5zM4 66l99.293 61V5zM108.418 66l99 61V5z"/>
    </symbol>
    <symbol id="play" viewBox="0 0 105.469 131.621">
      <title>Play</title>
      <path fill="#414042" stroke="#bf9600" stroke-width="2.5" d="M1.25 2.255V129.37l101.858-63.49z"/>
    </symbol>
    <symbol id="pause" viewBox="0 0 105.469 131.621">
      <title>Pause</title>
      <path fill="#414042" stroke="#bf9600" stroke-width="2.5" d="M13.25 1.25h23.652V131.46H13.25zM68.132 1.25h23.652V131.46H68.132z"/>
    </symbol>
    <symbol id="next" viewBox="0 0 213 132">
      <title>Next</title>
      <path fill="#414042" stroke="#bf9600" stroke-width="3.5" d="M4 5v122l99-61zM108.125 5v122l99.292-61zM4 5v122l99-61z"/>
    </symbol>
    <symbol id="facebook" viewBox="0 0 32 32">
      <title>Facebook</title>
      <path d="M8.3 10.6h3.3V7.4c0-1.4 0-3.6 1.1-5C13.7 1 15.2 0 17.8 0c4.2 0 5.9.6 5.9.6l-.8 4.9s-1.4-.4-2.7-.4c-1.3 0-2.4.5-2.4 1.7v3.7h5.3l-.4 4.8h-4.9V32h-6.2V15.4H8.3v-4.8z"/>
    </symbol>
    <symbol id="twitter" viewBox="0 0 32 32">
      <title>Twitter</title>
      <path d="M31.8 9.2c-1.2.5-2.4.9-3.8 1 1.3-.8 2.4-2.1 2.9-3.6-1.3.7-2.7 1.3-4.1 1.6-1.2-1.3-2.9-2.1-4.8-2.1-3.6 0-6.5 2.9-6.5 6.5 0 .5.1 1 .2 1.5-5.4-.3-10.2-2.9-13.5-6.8-.6 1-.9 2.1-.9 3.3 0 2.3 1.2 4.3 2.9 5.4-1.1 0-2.1-.3-3-.8v.1c0 3.2 2.2 5.8 5.2 6.4-.5.2-1.1.2-1.7.2-.4 0-.8 0-1.2-.1.8 2.6 3.2 4.5 6.1 4.5-2.2 1.8-5.1 2.8-8.1 2.8-.5 0-1 0-1.6-.1 3 1.9 6.4 3 10.1 3 12 0 18.6-9.9 18.6-18.6v-.8c1.2-.9 2.4-2.1 3.2-3.4"/>
    </symbol>
    <symbol id="instagram" viewBox="0 0 32 32">
      <title>Instagram</title>
      <path d="M25.4.1H6.1C2.8.1 0 2.8 0 6.2v19.3c0 3.4 2.7 6.1 6.1 6.1h19.3c3.4 0 6.1-2.7 6.1-6.1V6.2c0-3.4-2.7-6.1-6.1-6.1zm1.8 3.6h.7V9h-5.3V3.7h4.6zm-15.9 8.9c1-1.4 2.6-2.3 4.5-2.3s3.5.9 4.5 2.3c.7.9 1.1 2 1.1 3.2 0 3.1-2.5 5.5-5.5 5.5s-5.5-2.5-5.5-5.5c-.2-1.2.2-2.3.9-3.2zm17.2 12.9c0 1.7-1.4 3-3 3H6.1c-1.7 0-3-1.4-3-3V12.6h4.7c-.4 1-.6 2.1-.6 3.2 0 4.8 3.9 8.6 8.6 8.6s8.6-3.9 8.6-8.6c0-1.1-.2-2.2-.6-3.2h4.7v12.9z"/>
    </symbol>
    <symbol id="linkedin" viewBox="0 0 32 32">
      <title>LinkedIn</title>
      <path d="M7 32H.8V12.1H7V32zM3.8 9.6C1.5 9.6 0 8 0 6.1c0-2 1.5-3.5 3.8-3.5s3.7 1.5 3.8 3.5c0 1.9-1.5 3.5-3.8 3.5zM32 32h-7.1V21.7c0-2.7-1.1-4.5-3.5-4.5-1.9 0-2.9 1.2-3.4 2.4-.2.4-.2 1-.2 1.6V32h-7s.1-18.3 0-19.9h7v3.1c.4-1.4 2.6-3.3 6.2-3.3 4.4 0 7.9 2.9 7.9 9V32z"/>
    </symbol>
  </defs>
</svg>
