<svg xmlns="http://www.w3.org/2000/svg" width="32" height="32" viewBox="0 0 32 32"><path fill="#fff" d="M25.4.1H6.1C2.8.1 0 2.8 0 6.2v19.3c0 3.4 2.7 6.1 6.1 6.1h19.3c3.4 0 6.1-2.7 6.1-6.1V6.2c0-3.4-2.7-6.1-6.1-6.1zm1.8 3.6h.7V9h-5.3V3.7h4.6zm-15.9 8.9c1-1.4 2.6-2.3 4.5-2.3s3.5.9 4.5 2.3c.7.9 1.1 2 1.1 3.2 0 3.1-2.5 5.5-5.5 5.5s-5.5-2.5-5.5-5.5c-.2-1.2.2-2.3.9-3.2zm17.2 12.9c0 1.7-1.4 3-3 3H6.1c-1.7 0-3-1.4-3-3V12.6h4.7c-.4 1-.6 2.1-.6 3.2 0 4.8 3.9 8.6 8.6 8.6s8.6-3.9 8.6-8.6c0-1.1-.2-2.2-.6-3.2h4.7v12.9z"/></svg>