<svg xmlns="http://www.w3.org/2000/svg" width="32" height="32" viewBox="0 0 32 32"><path fill="#fff" d="M22.5 7.6v6.1c-.1.2-.3.3-.5.4-.2.1-.3.2-.5.2-.1 0-.3 0-.3-.1-.1-.1-.1-.2-.1-.4V7.6h-1.6v6.7c0 .5.1.8.3 1.1.2.2.5.4.9.4.3 0 .6-.1 1-.2.3-.2.6-.4.9-.8v.9h1.6v-8h-1.7zm-5 .4c-.4-.4-1-.6-1.7-.6s-1.3.2-1.8.6c-.4.4-.7.9-.7 1.5v4.1c0 .7.2 1.2.6 1.6.4.4 1 .6 1.7.6s1.3-.2 1.8-.6c.4-.4.6-.9.6-1.6V9.5c.1-.6-.1-1.1-.5-1.5zm-1.1 5.7c0 .2-.1.4-.2.5-.1.1-.3.2-.5.2s-.4-.1-.5-.2c-.1-.1-.2-.2-.2-.5V9.4c0-.2.1-.3.2-.4.1-.1.3-.2.5-.2s.4 0 .5.2c.1.1.2.2.2.4v4.3zm-5-8.9l-1.1 4.3h-.1L8.9 4.8H7l2.2 6.6v4.3H11v-4.5l2.1-6.4h-1.7zm12.8 19.1c.1.1.1.4.1.6v.7H23v-.7c0-.3 0-.5.1-.6.1-.1.3-.2.5-.2.3 0 .5.1.6.2zm-5.1-.1c-.1-.1-.3-.2-.4-.2-.1 0-.2 0-.3.1-.1 0-.2.1-.3.2v4.5c.1.1.2.2.4.3.1 0 .2.1.3.1.2 0 .3 0 .4-.2.1-.1.1-.3.1-.5v-3.8c0-.1-.1-.3-.2-.5zm0 0c-.1-.1-.3-.2-.4-.2-.1 0-.2 0-.3.1-.1 0-.2.1-.3.2v4.5c.1.1.2.2.4.3.1 0 .2.1.3.1.2 0 .3 0 .4-.2.1-.1.1-.3.1-.5v-3.8c0-.1-.1-.3-.2-.5zm8.3-5.6H4.6c-2.5 0-4.6 2.1-4.6 4.6v4.6C0 30 2.1 32 4.6 32h22.8c2.5 0 4.5-2 4.5-4.6v-4.6c0-2.5-2.1-4.6-4.5-4.6zm-16.7 3.2H9v8.4H7.3v-8.4H5.7V20h5v1.4zm4.8 8.5H14v-.8c-.3.3-.5.5-.8.7-.3.2-.6.2-.8.2-.3 0-.6-.1-.8-.3-.2-.2-.2-.5-.2-1v-6.1h1.4v5.6c0 .2 0 .3.1.4 0 .1.2.1.3.1.1 0 .2 0 .4-.2.2-.1.3-.2.4-.4v-5.5h1.5v7.3zm5.3-1.5c0 .5-.1.9-.3 1.2-.2.3-.6.4-1 .4-.3 0-.5 0-.8-.2-.2-.1-.4-.3-.6-.5v.6h-1.5V20H18v3.2c.2-.2.4-.4.6-.5.2-.1.5-.2.7-.2.4 0 .8.2 1 .5.2.3.4.8.4 1.3v4.1zm5-2H23v1.4c0 .4 0 .6.1.8.1.2.3.2.5.2s.4-.1.5-.2c.1-.1.1-.4.1-.8v-.3h1.5v.4c0 .8-.2 1.3-.6 1.7-.4.4-.9.6-1.6.6-.7 0-1.2-.2-1.5-.6-.4-.4-.6-.9-.6-1.7v-3.3c0-.6.2-1.1.6-1.5.4-.4.9-.6 1.6-.6.7 0 1.2.2 1.5.6.4.4.5.9.5 1.6v1.7zm-7.1-2.7c-.1 0-.2 0-.3.1-.1 0-.2.1-.3.2v4.5c.1.1.2.2.4.3.1 0 .2.1.3.1.2 0 .3 0 .4-.2.1-.1.1-.3.1-.5v-3.8c0-.2 0-.4-.2-.5-.1-.2-.3-.2-.4-.2zm.4.1c-.1-.1-.3-.2-.4-.2-.1 0-.2 0-.3.1-.1 0-.2.1-.3.2v4.5c.1.1.2.2.4.3.1 0 .2.1.3.1.2 0 .3 0 .4-.2.1-.1.1-.3.1-.5v-3.8c0-.1-.1-.3-.2-.5zm0 0c-.1-.1-.3-.2-.4-.2-.1 0-.2 0-.3.1-.1 0-.2.1-.3.2v4.5c.1.1.2.2.4.3.1 0 .2.1.3.1.2 0 .3 0 .4-.2.1-.1.1-.3.1-.5v-3.8c0-.1-.1-.3-.2-.5z"/></svg>