<?xml version="1.0" encoding="utf-8"?>
<!-- Generator: Adobe Illustrator 16.0.0, SVG Export Plug-In . SVG Version: 6.00 Build 0)  -->
<!DOCTYPE svg PUBLIC "-//W3C//DTD SVG 1.1//EN" "http://www.w3.org/Graphics/SVG/1.1/DTD/svg11.dtd">
<svg version="1.1" id="Layer_1" xmlns="http://www.w3.org/2000/svg" xmlns:xlink="http://www.w3.org/1999/xlink" x="0px" y="0px"
	 width="32px" height="32px" viewBox="0 0 32 32" enable-background="new 0 0 32 32" xml:space="preserve">
<path fill="#FFFFFF" d="M22.5,7.6v6.1c-0.1,0.2-0.3,0.3-0.5,0.4c-0.2,0.1-0.3,0.2-0.5,0.2c-0.1,0-0.3,0-0.3-0.1
	c-0.1-0.1-0.1-0.2-0.1-0.4V7.6h-1.6v6.7c0,0.5,0.1,0.8,0.3,1.1c0.2,0.2,0.5,0.4,0.9,0.4c0.3,0,0.6-0.1,1-0.2
	c0.3-0.2,0.6-0.4,0.9-0.8v0.9h1.6v-8H22.5z M17.5,8c-0.4-0.4-1-0.6-1.7-0.6c-0.7,0-1.3,0.2-1.8,0.6c-0.4,0.4-0.7,0.9-0.7,1.5v4.1
	c0,0.7,0.2,1.2,0.6,1.6c0.4,0.4,1,0.6,1.7,0.6c0.7,0,1.3-0.2,1.8-0.6c0.4-0.4,0.6-0.9,0.6-1.6V9.5C18.1,8.9,17.9,8.4,17.5,8z
	 M16.4,13.7c0,0.2-0.1,0.4-0.2,0.5c-0.1,0.1-0.3,0.2-0.5,0.2c-0.2,0-0.4-0.1-0.5-0.2C15.1,14.1,15,14,15,13.7V9.4
	c0-0.2,0.1-0.3,0.2-0.4c0.1-0.1,0.3-0.2,0.5-0.2c0.2,0,0.4,0,0.5,0.2c0.1,0.1,0.2,0.2,0.2,0.4V13.7z M11.4,4.8l-1.1,4.3h-0.1
	L8.9,4.8H7l2.2,6.6v4.3h1.8v-4.5l2.1-6.4H11.4z M24.2,23.9c0.1,0.1,0.1,0.4,0.1,0.6v0.7H23v-0.7c0-0.3,0-0.5,0.1-0.6
	c0.1-0.1,0.3-0.2,0.5-0.2C23.9,23.7,24.1,23.8,24.2,23.9z M19.1,23.8c-0.1-0.1-0.3-0.2-0.4-0.2c-0.1,0-0.2,0-0.3,0.1
	c-0.1,0-0.2,0.1-0.3,0.2v4.5c0.1,0.1,0.2,0.2,0.4,0.3c0.1,0,0.2,0.1,0.3,0.1c0.2,0,0.3,0,0.4-0.2c0.1-0.1,0.1-0.3,0.1-0.5v-3.8
	C19.3,24.2,19.2,24,19.1,23.8z M19.1,23.8c-0.1-0.1-0.3-0.2-0.4-0.2c-0.1,0-0.2,0-0.3,0.1c-0.1,0-0.2,0.1-0.3,0.2v4.5
	c0.1,0.1,0.2,0.2,0.4,0.3c0.1,0,0.2,0.1,0.3,0.1c0.2,0,0.3,0,0.4-0.2c0.1-0.1,0.1-0.3,0.1-0.5v-3.8C19.3,24.2,19.2,24,19.1,23.8z
	 M27.4,18.2H4.6c-2.5,0-4.6,2.1-4.6,4.6v4.6C0,30,2.1,32,4.6,32h22.8c2.5,0,4.5-2,4.5-4.6v-4.6C31.9,20.3,29.8,18.2,27.4,18.2z
	 M10.7,21.4H9v8.4H7.3v-8.4H5.7V20h5V21.4z M15.5,29.9H14v-0.8c-0.3,0.3-0.5,0.5-0.8,0.7c-0.3,0.2-0.6,0.2-0.8,0.2
	c-0.3,0-0.6-0.1-0.8-0.3c-0.2-0.2-0.2-0.5-0.2-1v-6.1h1.4v5.6c0,0.2,0,0.3,0.1,0.4c0,0.1,0.2,0.1,0.3,0.1c0.1,0,0.2,0,0.4-0.2
	c0.2-0.1,0.3-0.2,0.4-0.4v-5.5h1.5V29.9z M20.8,28.4c0,0.5-0.1,0.9-0.3,1.2c-0.2,0.3-0.6,0.4-1,0.4c-0.3,0-0.5,0-0.8-0.2
	c-0.2-0.1-0.4-0.3-0.6-0.5v0.6h-1.5V20H18v3.2c0.2-0.2,0.4-0.4,0.6-0.5c0.2-0.1,0.5-0.2,0.7-0.2c0.4,0,0.8,0.2,1,0.5
	c0.2,0.3,0.4,0.8,0.4,1.3V28.4z M25.8,26.4H23v1.4c0,0.4,0,0.6,0.1,0.8c0.1,0.2,0.3,0.2,0.5,0.2c0.2,0,0.4-0.1,0.5-0.2
	c0.1-0.1,0.1-0.4,0.1-0.8v-0.3h1.5v0.4c0,0.8-0.2,1.3-0.6,1.7c-0.4,0.4-0.9,0.6-1.6,0.6c-0.7,0-1.2-0.2-1.5-0.6
	c-0.4-0.4-0.6-0.9-0.6-1.7v-3.3c0-0.6,0.2-1.1,0.6-1.5c0.4-0.4,0.9-0.6,1.6-0.6c0.7,0,1.2,0.2,1.5,0.6c0.4,0.4,0.5,0.9,0.5,1.6V26.4
	z M18.7,23.7c-0.1,0-0.2,0-0.3,0.1c-0.1,0-0.2,0.1-0.3,0.2v4.5c0.1,0.1,0.2,0.2,0.4,0.3c0.1,0,0.2,0.1,0.3,0.1c0.2,0,0.3,0,0.4-0.2
	c0.1-0.1,0.1-0.3,0.1-0.5v-3.8c0-0.2,0-0.4-0.2-0.5C19,23.7,18.8,23.7,18.7,23.7z M19.1,23.8c-0.1-0.1-0.3-0.2-0.4-0.2
	c-0.1,0-0.2,0-0.3,0.1c-0.1,0-0.2,0.1-0.3,0.2v4.5c0.1,0.1,0.2,0.2,0.4,0.3c0.1,0,0.2,0.1,0.3,0.1c0.2,0,0.3,0,0.4-0.2
	c0.1-0.1,0.1-0.3,0.1-0.5v-3.8C19.3,24.2,19.2,24,19.1,23.8z M19.1,23.8c-0.1-0.1-0.3-0.2-0.4-0.2c-0.1,0-0.2,0-0.3,0.1
	c-0.1,0-0.2,0.1-0.3,0.2v4.5c0.1,0.1,0.2,0.2,0.4,0.3c0.1,0,0.2,0.1,0.3,0.1c0.2,0,0.3,0,0.4-0.2c0.1-0.1,0.1-0.3,0.1-0.5v-3.8
	C19.3,24.2,19.2,24,19.1,23.8z"/>
<g>
</g>
<g>
</g>
<g>
</g>
<g>
</g>
<g>
</g>
<g>
</g>
</svg>
